<svg width="150" height="150" viewBox="0 0 150 150" fill="none" xmlns="http://www.w3.org/2000/svg">
<rect x="32.571" y="80.6652" width="39.7066" height="76" rx="11.5" transform="rotate(-67.5601 32.571 80.6652)" stroke="#A020F0" style="stroke:#A020F0;stroke:color(display-p3 0.6275 0.1255 0.9412);stroke-opacity:1;" stroke-width="7"/>
<path d="M67.0092 102.623L57.9066 98.8271L41.8502 105.504C34.2009 108.685 30.5786 117.465 33.7595 125.114L40.1744 140.54C43.3553 148.189 52.1348 151.811 59.7841 148.63L108.721 128.28C116.371 125.099 119.993 116.32 116.812 108.67L110.397 93.2444C107.216 85.5951 98.4368 81.9728 90.7875 85.1537L76.3013 91.1778L85.4038 94.9736L93.4753 91.6171C97.5549 89.9207 102.237 91.8526 103.934 95.9322L110.349 111.358C112.045 115.438 110.113 120.12 106.034 121.817L57.0963 142.167C53.0167 143.864 48.3343 141.932 46.6378 137.852L40.223 122.426C38.5265 118.346 40.4584 113.664 44.538 111.968L67.0092 102.623Z" fill="#B95CF4" style="fill:#B95CF4;fill:color(display-p3 0.7255 0.3608 0.9569);fill-opacity:1;"/>
<path d="M103.934 12.9322L110.349 28.3582C112.045 32.4378 110.113 37.1202 106.034 38.8167L79.4113 49.8875L88.5138 53.6834L108.721 45.2801C116.371 42.0992 119.993 33.3196 116.812 25.6704L110.397 10.2444C107.216 2.59513 98.4368 -1.02718 90.7875 2.15373L41.8502 22.5041C34.2009 25.685 30.5786 34.4646 33.7595 42.1138L40.1744 57.5398C43.3553 65.1891 52.1348 68.8114 59.7841 65.6305L70.1191 61.3327L61.0166 57.5368L57.0963 59.1671C53.0167 60.8635 48.3343 58.9316 46.6378 54.852L40.223 39.426C38.5265 35.3464 40.4584 30.664 44.538 28.9675L93.4753 8.61715C97.5549 6.92067 102.237 8.85257 103.934 12.9322Z" fill="#B95CF4" style="fill:#B95CF4;fill:color(display-p3 0.7255 0.3608 0.9569);fill-opacity:1;"/>
</svg>
